# xmcd
#
# Track frame offsets:
#	150
#	21531
#	38060
#	62682
#	77877
#	99286
#	119277
#	139837
#	159925
#	173646
#	192526
#	209602
#	230317
#	250313
#	274941
#	286727
#
# Disc length: 4095 seconds
#
# Revision: 0
# Processed by: cddbd v1.5.2PL0 Copyright (c) Steve Scherf et al.
# Submitted via: EZCDAudioConverter 1.3.4.1
#
DISCID=e10ffd10
DTITLE=Amel Larrieux - Ice Cream Everyday
DYEAR=2013
DGENRE=R&B
TTITLE0=Afraid
TTITLE1=A Million Sapphires
TTITLE2=I Do Take
TTITLE3=You Don't See Me
TTITLE4=W The Shhh
TTITLE5=Berries and Cream
TTITLE6=Danger
TTITLE7=Moment To Reflect
TTITLE8=Have You?
TTITLE9=Orange Glow
TTITLE10=See Where You Are
TTITLE11=Don't Let Me Down
TTITLE12=Trapped Being Human
TTITLE13=I Do Take 2 (Bonus Track)
TTITLE14=Soon (Bonus Track)
TTITLE15=Danger 2 (Bonus Track)
EXTD=
EXTT0=
EXTT1=
EXTT2=
EXTT3=
EXTT4=
EXTT5=
EXTT6=
EXTT7=
EXTT8=
EXTT9=
EXTT10=
EXTT11=
EXTT12=
EXTT13=
EXTT14=
EXTT15=
PLAYORDER=
